<?xml version="1.0" encoding="utf-8"?>
<!-- Generator: Adobe Illustrator 25.4.1, SVG Export Plug-In . SVG Version: 6.00 Build 0)  -->
<svg version="1.1" id="TORRENS_UNIVERSITY_AUSTRLIA"
	 xmlns="http://www.w3.org/2000/svg" xmlns:xlink="http://www.w3.org/1999/xlink" x="0px" y="0px" viewBox="0 0 128 37"
	 style="enable-background:new 0 0 128 37;" xml:space="preserve">
<style type="text/css">
	.st0{fill:#868686;}
	.st1{fill:#FF5000;}
</style>
<g>
	<path class="st0" d="M51.1,36.4l-0.8-1.9h-3.7l-0.8,1.9h-2.1l3.8-8.8h1.9l3.8,8.8H51.1z M48.4,30.2l-1.1,2.6h2.2L48.4,30.2z
		 M56.9,34.1c0.3,0.4,0.8,0.6,1.3,0.6c0.6,0,1-0.2,1.3-0.6c0.3-0.4,0.5-1,0.5-1.7v-4.9h2v4.9c0,1.3-0.4,2.3-1.1,3
		c-0.7,0.7-1.6,1-2.7,1c-1.1,0-2-0.3-2.7-1c-0.7-0.7-1.1-1.7-1.1-2.9v-4.9h2v4.9C56.4,33.1,56.6,33.7,56.9,34.1z M66.8,29.3
		c-0.2,0.2-0.3,0.4-0.3,0.6c0,0.3,0.1,0.5,0.3,0.6c0.2,0.2,0.8,0.3,1.6,0.5c0.8,0.2,1.5,0.5,2,0.9c0.5,0.4,0.7,1,0.7,1.8
		c0,0.8-0.3,1.4-0.9,1.9c-0.6,0.5-1.4,0.7-2.3,0.7c-1.4,0-2.7-0.5-3.8-1.6l1.2-1.4c1,0.8,1.8,1.3,2.6,1.3c0.4,0,0.6-0.1,0.9-0.2
		c0.2-0.2,0.3-0.4,0.3-0.6c0-0.3-0.1-0.5-0.3-0.6c-0.2-0.2-0.7-0.3-1.3-0.5c-1-0.2-1.8-0.6-2.3-1c-0.5-0.4-0.7-1-0.7-1.8
		c0-0.8,0.3-1.5,0.9-1.9c0.6-0.5,1.4-0.7,2.3-0.7c0.6,0,1.2,0.1,1.8,0.3c0.6,0.2,1.1,0.5,1.5,0.9l-1,1.4c-0.8-0.6-1.6-0.9-2.4-0.9
		C67.2,29.1,67,29.1,66.8,29.3z M77.1,29.2v7.1h-2v-7.1h-2.5v-1.7h7v1.7H77.1z M88.9,30.5c0,1.4-0.6,2.3-1.7,2.7l2.2,3.2H87l-2-2.8
		h-1.4v2.8h-2v-8.8H85c1.4,0,2.4,0.2,2.9,0.7C88.6,28.7,88.9,29.4,88.9,30.5z M86.5,31.5c0.2-0.2,0.4-0.6,0.4-1c0-0.5-0.1-0.8-0.4-1
		c-0.3-0.2-0.7-0.3-1.3-0.3h-1.5v2.6h1.4C85.8,31.8,86.2,31.7,86.5,31.5z M97.8,36.4L97,34.5h-3.7l-0.8,1.9h-2.1l3.8-8.8h1.9
		l3.8,8.8H97.8z M95.1,30.2L94,32.7h2.2L95.1,30.2z M101.6,36.4v-8.8h2v7.1h3.8v1.8H101.6z M109.4,27.5h2v8.8h-2V27.5z M120.5,36.4
		l-0.8-1.9h-3.7l-0.8,1.9H113l3.8-8.8h1.9l3.8,8.8H120.5z M117.8,30.2l-1.1,2.6h2.2L117.8,30.2z"/>
	<path class="st1" d="M48.5,2.4v7.1h-2V2.4H44V0.7h7v1.7H48.5z M60.3,8.3c-0.9,0.9-2,1.3-3.3,1.3c-1.3,0-2.4-0.4-3.3-1.3
		c-0.9-0.9-1.3-2-1.3-3.3c0-1.3,0.4-2.4,1.3-3.3c0.9-0.9,2-1.3,3.3-1.3c1.3,0,2.4,0.4,3.3,1.3c0.9,0.9,1.3,2,1.3,3.3
		C61.6,6.4,61.2,7.5,60.3,8.3z M59.6,5.1c0-0.8-0.3-1.5-0.8-2c-0.5-0.6-1.1-0.8-1.9-0.8c-0.7,0-1.4,0.3-1.9,0.8
		c-0.5,0.6-0.8,1.2-0.8,2c0,0.8,0.3,1.5,0.8,2c0.5,0.6,1.1,0.8,1.9,0.8c0.7,0,1.4-0.3,1.9-0.8C59.4,6.5,59.6,5.9,59.6,5.1z
		 M71.1,3.6c0,1.4-0.6,2.3-1.7,2.7l2.2,3.2h-2.4l-2-2.8h-1.4v2.8h-2V0.7h3.4c1.4,0,2.4,0.2,2.9,0.7C70.8,1.9,71.1,2.6,71.1,3.6z
		 M68.7,4.7c0.2-0.2,0.4-0.6,0.4-1c0-0.5-0.1-0.8-0.4-1c-0.3-0.2-0.7-0.3-1.3-0.3h-1.5V5h1.4C68,5,68.5,4.9,68.7,4.7z M80.9,3.6
		c0,1.4-0.6,2.3-1.7,2.7l2.2,3.2h-2.4l-2-2.8h-1.4v2.8h-2V0.7h3.4c1.4,0,2.4,0.2,2.9,0.7C80.7,1.9,80.9,2.6,80.9,3.6z M78.6,4.7
		c0.2-0.2,0.4-0.6,0.4-1c0-0.5-0.1-0.8-0.4-1c-0.3-0.2-0.7-0.3-1.3-0.3h-1.5V5h1.4C77.9,5,78.3,4.9,78.6,4.7z M90,0.7v1.8h-4.4v1.8
		h4V6h-4v1.8h4.5v1.7h-6.5V0.7H90z M98.7,0.7h2v8.8h-2L94.5,4v5.5h-2V0.7h1.8l4.3,5.7V0.7z M105.5,2.5c-0.2,0.2-0.3,0.4-0.3,0.6
		c0,0.3,0.1,0.5,0.3,0.6c0.2,0.2,0.8,0.3,1.6,0.5s1.5,0.5,2,0.9c0.5,0.4,0.7,1,0.7,1.8c0,0.8-0.3,1.4-0.9,1.9
		c-0.6,0.5-1.4,0.7-2.3,0.7c-1.4,0-2.7-0.5-3.8-1.6l1.2-1.4c1,0.8,1.8,1.3,2.6,1.3c0.4,0,0.6-0.1,0.9-0.2c0.2-0.2,0.3-0.4,0.3-0.6
		c0-0.3-0.1-0.5-0.3-0.6c-0.2-0.2-0.7-0.3-1.3-0.5c-1-0.2-1.8-0.6-2.3-1c-0.5-0.4-0.7-1-0.7-1.8c0-0.8,0.3-1.5,0.9-1.9
		c0.6-0.5,1.4-0.7,2.3-0.7c0.6,0,1.2,0.1,1.8,0.3c0.6,0.2,1.1,0.5,1.5,0.9l-1,1.4c-0.8-0.6-1.6-0.9-2.4-0.9
		C106,2.2,105.7,2.3,105.5,2.5z M47.1,20.7c0.3,0.4,0.8,0.6,1.3,0.6c0.6,0,1-0.2,1.3-0.6c0.3-0.4,0.5-1,0.5-1.7v-4.9h2v4.9
		c0,1.3-0.4,2.3-1.1,3c-0.7,0.7-1.6,1-2.7,1c-1.1,0-2-0.3-2.7-1c-0.7-0.7-1.1-1.7-1.1-2.9v-4.9h2V19C46.6,19.7,46.8,20.3,47.1,20.7z
		 M61.1,14.1h2V23h-2l-4.2-5.5V23h-2v-8.8h1.8l4.3,5.7V14.1z M65.9,14.1h2V23h-2V14.1z M73.9,19.8l2.3-5.6h2.1L74.8,23h-1.7
		l-3.6-8.8h2.1L73.9,19.8z M86.4,14.1v1.8H82v1.8h4v1.7h-4v1.8h4.5V23H80v-8.8H86.4z M96.1,17.1c0,1.4-0.6,2.3-1.7,2.7l2.2,3.2h-2.4
		l-2-2.8h-1.4V23h-2v-8.8h3.4c1.4,0,2.4,0.2,2.9,0.7C95.8,15.3,96.1,16,96.1,17.1z M93.7,18.1c0.2-0.2,0.4-0.6,0.4-1
		c0-0.5-0.1-0.8-0.4-1c-0.3-0.2-0.7-0.3-1.3-0.3h-1.5v2.6h1.4C93,18.4,93.5,18.3,93.7,18.1z M100.8,15.9c-0.2,0.2-0.3,0.4-0.3,0.6
		s0.1,0.5,0.3,0.6c0.2,0.2,0.8,0.3,1.6,0.5c0.8,0.2,1.5,0.5,2,0.9c0.5,0.4,0.7,1,0.7,1.8c0,0.8-0.3,1.4-0.9,1.9
		c-0.6,0.5-1.4,0.7-2.3,0.7c-1.4,0-2.7-0.5-3.8-1.6l1.2-1.4c1,0.8,1.8,1.3,2.6,1.3c0.4,0,0.6-0.1,0.9-0.2c0.2-0.2,0.3-0.4,0.3-0.6
		c0-0.3-0.1-0.5-0.3-0.6c-0.2-0.2-0.7-0.3-1.3-0.5c-1-0.2-1.8-0.6-2.3-1c-0.5-0.4-0.7-1-0.7-1.8c0-0.8,0.3-1.5,0.9-1.9
		c0.6-0.5,1.4-0.7,2.3-0.7c0.6,0,1.2,0.1,1.8,0.3c0.6,0.2,1.1,0.5,1.5,0.9l-1,1.4c-0.8-0.6-1.6-0.9-2.4-0.9
		C101.2,15.7,101,15.7,100.8,15.9z M107.4,14.1h2V23h-2V14.1z M116,15.8V23h-2v-7.1h-2.5v-1.7h7v1.7H116z M124.3,23h-2v-3.5
		l-3.1-5.4h2.1l1.9,3.3l1.9-3.3h2.1l-3.1,5.4V23z M34.1,2.4v32.4H1.8V2.4H34.1 M35.9,0.6H0v35.9h35.9V0.6L35.9,0.6z M28,8.6H7.9v2.2
		h6.7v18.8h2.2V10.8H19v18.8h2.2V10.8H28V8.6z"/>
</g>
</svg>
